HIERARCHY
ROOT Hips
{
	OFFSET 0.00000 0.00000 0.00000
	CHANNELS 6 Xposition Yposition Zposition Zrotation Yrotation Xrotation 
	JOINT LHipJoint
	{
		OFFSET 0 0 0
		CHANNELS 3 Zrotation Yrotation Xrotation
		JOINT LeftUpLeg
		{
			OFFSET 1.57358 -1.76629 0.73362
			CHANNELS 3 Zrotation Yrotation Xrotation
			JOINT LeftLeg
			{
				OFFSET 2.40600 -6.61045 0.00000
				CHANNELS 3 Zrotation Yrotation Xrotation
				JOINT LeftFoot
				{
					OFFSET 2.66168 -7.31291 0.00000
					CHANNELS 3 Zrotation Yrotation Xrotation
					JOINT LeftToeBase
					{
						OFFSET 0.20870 -0.57341 2.12506
						CHANNELS 3 Zrotation Yrotation Xrotation
						End Site
						{
							OFFSET 0.00000 -0.00000 1.10557
						}
					}
				}
			}
		}
	}
	JOINT RHipJoint
	{
		OFFSET 0 0 0
		CHANNELS 3 Zrotation Yrotation Xrotation
		JOINT RightUpLeg
		{
			OFFSET -1.49299 -1.76629 0.73362
			CHANNELS 3 Zrotation Yrotation Xrotation
			JOINT RightLeg
			{
				OFFSET -2.43663 -6.69460 0.00000
				CHANNELS 3 Zrotation Yrotation Xrotation
				JOINT RightFoot
				{
					OFFSET -2.62959 -7.22474 0.00000
					CHANNELS 3 Zrotation Yrotation Xrotation
					JOINT RightToeBase
					{
						OFFSET -0.25784 -0.70841 2.21862
						CHANNELS 3 Zrotation Yrotation Xrotation
						End Site
						{
							OFFSET -0.00000 -0.00000 1.16452
						}
					}
				}
			}
		}
	}
	JOINT LowerBack
	{
		OFFSET 0 0 0
		CHANNELS 3 Zrotation Yrotation Xrotation
		JOINT Spine
		{
			OFFSET -0.00034 2.12399 -0.25450
			CHANNELS 3 Zrotation Yrotation Xrotation
			JOINT Spine1
			{
				OFFSET 0.05594 2.14379 -0.03318
				CHANNELS 3 Zrotation Yrotation Xrotation
				JOINT Neck
				{
					OFFSET 0 0 0
					CHANNELS 3 Zrotation Yrotation Xrotation
					JOINT Neck1
					{
						OFFSET -0.09835 1.62725 0.24211
						CHANNELS 3 Zrotation Yrotation Xrotation
						JOINT Head
						{
							OFFSET 0.10849 1.66041 -0.22648
							CHANNELS 3 Zrotation Yrotation Xrotation
							End Site
							{
								OFFSET 0.04385 1.68267 -0.10541
							}
						}
					}
				}
				JOINT LeftShoulder
				{
					OFFSET 0 0 0
					CHANNELS 3 Zrotation Yrotation Xrotation
					JOINT LeftArm
					{
						OFFSET 3.29108 0.79398 -0.68179
						CHANNELS 3 Zrotation Yrotation Xrotation
						JOINT LeftForeArm
						{
							OFFSET 5.15310 -0.00000 -0.00000
							CHANNELS 3 Zrotation Yrotation Xrotation
							JOINT LeftHand
							{
								OFFSET 3.75138 -0.00000 -0.00000
								CHANNELS 3 Zrotation Yrotation Xrotation
								JOINT LeftFingerBase
								{
									OFFSET 0 0 0
									CHANNELS 3 Zrotation Yrotation Xrotation
									JOINT LeftHandIndex1
									{
										OFFSET 0.52917 -0.00000 0.00000
										CHANNELS 3 Zrotation Yrotation Xrotation
										End Site
										{
											OFFSET 0.42663 -0.00000 0.00000
										}
									}
								}
								JOINT LThumb
								{
									OFFSET 0 0 0
									CHANNELS 3 Zrotation Yrotation Xrotation
									End Site
									{
										OFFSET 0.43315 -0.00000 0.43315
									}
								}
							}
						}
					}
				}
				JOINT RightShoulder
				{
					OFFSET 0 0 0
					CHANNELS 3 Zrotation Yrotation Xrotation
					JOINT RightArm
					{
						OFFSET -3.07414 1.06285 -0.44338
						CHANNELS 3 Zrotation Yrotation Xrotation
						JOINT RightForeArm
						{
							OFFSET -5.29613 -0.00000 0.00000
							CHANNELS 3 Zrotation Yrotation Xrotation
							JOINT RightHand
							{
								OFFSET -3.76144 -0.00000 -0.00000
								CHANNELS 3 Zrotation Yrotation Xrotation
								JOINT RightFingerBase
								{
									OFFSET 0 0 0
									CHANNELS 3 Zrotation Yrotation Xrotation
									JOINT RightHandIndex1
									{
										OFFSET -0.74732 -0.00000 0.00000
										CHANNELS 3 Zrotation Yrotation Xrotation
										End Site
										{
											OFFSET -0.60251 -0.00000 0.00000
										}
									}
								}
								JOINT RThumb
								{
									OFFSET 0 0 0
									CHANNELS 3 Zrotation Yrotation Xrotation
									End Site
									{
										OFFSET -0.61171 -0.00000 0.61171
									}
								}
							}
						}
					}
				}
			}
		}
	}
}
MOTION
Frames: 11
Frame Time: .0083333
0.656200 17.228900 3.630600 -5.597100 -5.055200 -1.697100 0.000000 0.000000 0.000000 -12.906700 -7.660000 -30.922300 5.378200 13.797500 42.432100 0.163500 4.587400 -10.705200 0.226200 -3.061300 -8.449500 0.000000 0.000000 0.000000 32.555600 6.205800 6.476300 -1.408700 -7.507300 21.227200 -0.842100 -1.534000 -17.954800 -0.052100 1.472500 -4.049900 4.888800 1.301100 5.977700 3.731800 2.159100 0.615300 0.936200 1.037500 -2.682900 -9.248900 -3.297800 -15.548200 4.563200 -3.313800 21.928700 2.708200 -1.798300 9.759900 -0.000000 -0.000000 0.000000 -91.208100 6.964300 22.973100 12.982700 -21.261800 -2.447000 -0.000000 -0.000000 11.092700 12.659600 26.122700 5.648100 -7.125000 0.000000 -0.000000 -18.541800 55.687900 -4.986500 -0.000000 -0.000000 0.000000 82.691900 5.071500 20.442100 -20.778200 31.568600 -5.933400 0.000000 0.000000 0.343700 -15.550500 12.654800 -3.488600 7.125000 -0.000000 -0.000000 8.113500 -16.942600 5.452300
0.656400 17.212800 3.859100 -5.672700 -5.263800 -1.446000 0.000000 0.000000 0.000000 -12.671800 -8.192300 -30.996500 4.666900 12.998600 39.363100 0.133500 5.248200 -10.757100 0.321600 -3.645200 -10.080600 0.000000 0.000000 0.000000 32.555500 5.760200 7.425200 -1.305700 -7.238700 20.424500 -0.887900 -1.252500 -18.296400 -0.061700 1.603100 -4.409900 5.023500 1.379100 5.913800 3.680400 2.268900 0.552400 0.800400 1.089300 -2.703000 -9.159500 -3.334000 -15.640700 4.509900 -3.363600 21.834700 2.666000 -1.817400 9.745100 -0.000000 0.000000 0.000000 -91.356100 7.088400 22.359400 12.677600 -20.813000 -2.337500 -0.000000 -0.000000 11.483700 12.235200 26.904300 5.604200 -7.125000 0.000000 -0.000000 -19.442100 56.342400 -5.554800 -0.000000 0.000000 0.000000 82.261100 5.727500 21.198300 -21.118600 31.966600 -6.112600 0.000000 0.000000 0.135000 -15.724400 12.751400 -3.556000 7.125000 -0.000000 -0.000000 7.993200 -16.830800 5.389500
0.653600 17.201400 4.090600 -5.584700 -5.251400 -1.108500 0.000000 0.000000 0.000000 -12.530700 -9.057400 -31.096900 3.995600 12.154600 36.281000 0.105400 5.652000 -10.617300 0.320200 -3.637200 -10.058200 0.000000 0.000000 0.000000 32.347300 5.221800 8.244400 -1.194600 -6.935400 19.524100 -0.928000 -0.683800 -18.463800 -0.052300 1.476400 -4.060700 4.925000 1.413300 5.698500 3.616700 2.297700 0.421700 0.791200 1.103200 -2.718200 -9.268800 -3.329600 -15.755800 4.652900 -3.354700 21.951700 2.736700 -1.806600 9.811900 -0.000000 -0.000000 0.000000 -91.542100 7.281000 21.833500 12.331500 -20.299900 -2.216000 -0.000000 -0.000000 11.584900 12.575000 27.491900 5.879200 -7.125000 0.000000 -0.000000 -19.469800 56.965800 -5.860500 -0.000000 -0.000000 0.000000 81.890600 6.159700 21.765400 -21.632500 32.559200 -6.386900 0.000000 -0.000000 -0.012700 -15.963400 12.664700 -3.588600 7.125000 -0.000000 -0.000000 7.827800 -16.901400 5.263700
0.647400 17.181500 4.321600 -5.653700 -5.186700 -0.819400 0.000000 0.000000 0.000000 -12.100400 -10.115200 -31.096100 3.384100 11.292300 33.272000 0.079800 6.019200 -10.501300 0.311000 -3.584900 -9.911800 0.000000 0.000000 0.000000 32.375300 4.699500 9.147100 -1.090900 -6.637700 18.646400 -0.961100 -0.452800 -18.698600 -0.048100 1.415300 -3.892300 4.865200 1.398500 5.406500 3.693700 2.252700 0.443400 0.915500 1.085400 -2.538300 -9.399400 -3.314300 -16.054300 4.640300 -3.262800 21.887300 2.763500 -1.771800 9.840900 -0.000000 -0.000000 0.000000 -91.892800 7.141600 21.066500 11.947700 -19.726100 -2.084600 -0.000000 -0.000000 11.787400 13.002300 27.260700 6.037500 -7.125000 0.000000 -0.000000 -18.887700 56.836300 -5.616600 -0.000000 -0.000000 0.000000 81.356500 6.727400 22.415600 -22.364800 33.386900 -6.785500 0.000000 -0.000000 -0.485700 -15.702400 11.157500 -3.113900 7.125000 -0.000000 -0.000000 8.015700 -18.465200 5.114500
0.640800 17.157300 4.548700 -5.844000 -5.412300 -0.577800 0.000000 0.000000 0.000000 -11.340800 -11.293100 -30.920500 2.842300 10.435300 30.398300 0.046100 6.801500 -10.746500 0.234000 -3.113200 -8.594200 0.000000 0.000000 0.000000 32.564900 4.432800 10.150900 -1.002500 -6.371500 17.866100 -0.972100 -0.409700 -18.788900 -0.035800 1.222000 -3.359900 4.968300 1.483900 5.396700 3.705100 2.375200 0.389100 0.860700 1.143800 -2.583100 -9.205900 -3.323100 -16.422500 4.528400 -3.262100 21.875200 2.689000 -1.763500 9.899800 0.000000 0.000000 0.000000 -92.073800 7.349800 20.365800 11.805600 -19.512500 -2.036900 -0.000000 -0.000000 12.120300 13.177400 27.038100 6.075200 -7.125000 0.000000 -0.000000 -18.570600 56.661500 -5.438300 0.000000 0.000000 0.000000 81.009800 7.326100 22.875900 -22.514600 33.553800 -6.868100 0.000000 -0.000000 -0.157600 -15.834000 11.088400 -3.122100 7.125000 -0.000000 -0.000000 7.923900 -18.527400 5.043700
0.640000 17.130300 4.778100 -5.619700 -5.638600 -0.319100 0.000000 0.000000 0.000000 -10.977800 -12.627700 -30.652700 2.378800 9.614200 27.736200 0.028100 7.631900 -11.468600 0.156800 -2.551800 -7.033300 0.000000 0.000000 0.000000 32.177100 3.948700 10.998000 -0.927900 -6.136400 17.180700 -0.988300 -0.154000 -18.851900 -0.043900 1.352000 -3.717900 4.714000 1.609100 5.372100 3.588100 2.528800 0.273800 0.869000 1.220000 -2.691000 -9.135800 -3.348400 -16.718700 4.602300 -3.308000 21.967500 2.696600 -1.768200 9.991300 0.000000 -0.000000 0.000000 -92.223900 7.865000 19.934100 11.827200 -19.545000 -2.044100 -0.000000 -0.000000 12.135600 13.249100 26.932900 6.087400 -7.125000 0.000000 -0.000000 -18.432900 56.576300 -5.357600 0.000000 -0.000000 0.000000 80.772600 7.889300 23.002300 -22.770200 33.836500 -7.009900 0.000000 0.000000 0.104900 -15.681200 11.649400 -3.244400 7.125000 -0.000000 -0.000000 8.026600 -17.962600 5.211500
0.641200 17.097300 5.009700 -5.406600 -5.704200 -0.237800 0.000000 0.000000 0.000000 -10.633600 -14.024300 -30.147400 1.996200 8.858100 25.352400 0.033800 8.228200 -12.381300 0.089200 -1.926100 -5.301500 0.000000 0.000000 0.000000 31.800100 3.232200 11.875200 -0.870400 -5.948300 16.634500 -1.010200 -0.127600 -19.049900 -0.086400 1.896000 -5.218400 4.485800 1.688000 5.329200 3.489200 2.612600 0.303200 0.889400 1.265200 -2.640200 -9.233100 -3.402200 -16.647000 4.747300 -3.397800 21.886900 2.751500 -1.800800 9.960300 -0.000000 -0.000000 0.000000 -92.363300 8.152900 19.498000 11.730200 -19.398900 -2.011800 -0.000000 -0.000000 12.166000 13.596600 26.726900 6.207900 -7.125000 0.000000 -0.000000 -17.954200 56.451300 -5.157100 -0.000000 -0.000000 0.000000 80.526300 8.408100 23.033100 -23.240900 34.351200 -7.273800 0.000000 0.000000 0.189100 -15.830100 12.928300 -3.629800 7.125000 -0.000000 -0.000000 7.920300 -16.641500 5.372400
0.638500 17.061000 5.241400 -5.515200 -5.870300 -0.165300 0.000000 0.000000 0.000000 -9.798800 -15.406300 -29.773400 1.694600 8.198700 23.319200 0.022500 8.951900 -13.161300 0.050000 -1.443000 -3.968800 0.000000 0.000000 0.000000 31.877300 2.781500 12.833900 -0.820400 -5.779300 16.145500 -1.003200 -0.468000 -19.107200 -0.156000 2.545200 -7.015100 4.484500 1.752900 5.282700 3.522500 2.693900 0.347600 0.921000 1.307300 -2.568600 -9.292200 -3.386000 -16.379200 4.802700 -3.391500 21.572600 2.779600 -1.795300 9.799800 0.000000 -0.000000 0.000000 -92.549000 8.398900 18.973200 11.560900 -19.142900 -1.955900 -0.000000 -0.000000 12.191200 13.798900 26.068700 6.160100 -7.125000 0.000000 -0.000000 -17.361800 55.862800 -4.729200 0.000000 -0.000000 0.000000 80.283400 8.953000 23.094300 -23.626800 34.767200 -7.492700 0.000000 0.000000 0.325700 -15.926600 13.284000 -3.751500 7.125000 -0.000000 -0.000000 7.855100 -16.269500 5.391300
0.634800 17.034200 5.475400 -5.723500 -6.097100 0.123200 0.000000 0.000000 0.000000 -8.846900 -16.477000 -29.963600 1.484500 7.697800 21.799900 0.006800 9.622500 -13.823600 0.064500 -1.638500 -4.507500 0.000000 0.000000 0.000000 32.007500 2.494300 13.694000 -0.759700 -5.566500 15.531800 -0.988500 -0.489400 -18.975700 -0.191000 2.814600 -7.763000 4.643300 1.858500 5.054500 3.547700 2.829500 0.313300 0.856800 1.374500 -2.467700 -9.349400 -3.388200 -16.372900 4.910000 -3.399400 21.319500 2.822900 -1.788000 9.712300 0.000000 0.000000 0.000000 -92.746100 8.689500 18.447400 11.448000 -18.971700 -1.919000 -0.000000 -0.000000 12.128000 14.381200 25.431200 6.283400 -7.125000 0.000000 -0.000000 -16.416200 55.364400 -4.260500 0.000000 0.000000 0.000000 80.040400 9.356300 23.189500 -23.995400 35.159400 -7.703900 0.000000 0.000000 0.370500 -15.960000 13.211600 -3.739700 7.125000 -0.000000 -0.000000 7.831700 -16.341000 5.362700
0.634700 17.007300 5.711100 -5.686100 -6.315500 0.437000 0.000000 0.000000 0.000000 -8.304100 -17.306500 -30.286700 1.343300 7.338000 20.720600 0.022600 10.040700 -14.662100 0.085900 -1.890900 -5.204200 0.000000 0.000000 0.000000 31.787400 2.227900 14.517300 -0.711200 -5.389700 15.023500 -0.985500 -0.355400 -18.897300 -0.240200 3.154300 -8.708700 4.577100 1.950500 4.730700 3.498000 2.924300 0.298900 0.847700 1.425000 -2.299800 -9.311400 -3.382300 -16.496400 4.884200 -3.378900 21.176700 2.807600 -1.774700 9.682100 0.000000 -0.000000 0.000000 -92.948000 8.956200 17.854500 11.428600 -18.942200 -1.912700 -0.000000 -0.000000 12.163600 13.959100 25.807600 6.176200 -7.125000 0.000000 -0.000000 -17.051200 55.644000 -4.549400 0.000000 -0.000000 0.000000 79.792700 9.692500 23.367100 -24.411800 35.596700 -7.945000 0.000000 0.000000 0.285400 -16.269800 13.471600 -3.889500 7.125000 -0.000000 -0.000000 7.620600 -16.049100 5.264100
0.635600 16.966500 5.949300 -5.587900 -6.593500 0.545400 0.000000 0.000000 0.000000 -8.157900 -17.638200 -30.341600 1.241000 7.063800 19.904600 0.049600 10.391900 -15.550300 0.129600 -2.320600 -6.392600 0.000000 0.000000 0.000000 31.516300 2.000100 15.446400 -0.698900 -5.344000 14.892200 -0.990300 -0.239100 -18.901500 -0.391500 4.017800 -11.126800 4.464200 2.061900 4.550400 3.391700 3.047300 0.368800 0.801800 1.490600 -2.124200 -9.053100 -3.394400 -16.405800 4.781700 -3.440700 20.809500 2.716400 -1.790300 9.533400 -0.000000 -0.000000 0.000000 -92.988400 8.849600 17.164400 11.101800 -18.444100 -1.808000 -0.000000 -0.000000 12.297800 13.571200 26.254300 6.095000 -7.125000 0.000000 -0.000000 -17.699800 55.994900 -4.882800 -0.000000 -0.000000 0.000000 79.753800 10.017700 23.353900 -24.808800 36.008000 -8.177300 0.000000 0.000000 0.284600 -16.899800 14.092000 -4.230700 7.125000 -0.000000 -0.000000 7.196700 -15.357400 5.074600
